<svg xmlns="http://www.w3.org/2000/svg" xmlns:xlink="http://www.w3.org/1999/xlink" version="1.1" x="0px" y="0px" viewBox="0 0 100 100" enable-background="new 0 0 100 100" xml:space="preserve"><g><path fill-rule="evenodd" clip-rule="evenodd" d="M33.194,64.887c-0.877-1.143-2.417-1.58-4.155-1.156   c-0.438,0.105-0.901-0.012-1.235-0.316c-0.333-0.305-0.491-0.756-0.422-1.203c0.311-2.021-0.182-3.854-1.422-5.298   c-0.188-0.22-0.397-0.428-0.617-0.626c-0.077-0.071-0.163-0.135-0.245-0.201c-0.146-0.122-0.296-0.242-0.453-0.354   c-0.111-0.079-0.228-0.152-0.343-0.228c-0.139-0.087-0.279-0.173-0.424-0.255c-0.14-0.078-0.28-0.153-0.426-0.224   c-0.127-0.063-0.259-0.123-0.391-0.182c-0.169-0.074-0.338-0.147-0.513-0.214c-0.104-0.039-0.211-0.071-0.317-0.108   c-1.172-0.398-2.468-0.626-3.824-0.626c-4.466,0-8.137,3.35-8.539,7.791c-0.034,0.383-0.231,0.734-0.54,0.964   c-0.31,0.229-0.703,0.316-1.079,0.238c-0.296-0.062-0.6-0.091-0.903-0.091c-2.158,0-3.962,1.549-4.355,3.595h22.736h8.087   C33.752,65.863,33.54,65.338,33.194,64.887z"/><path fill-rule="evenodd" clip-rule="evenodd" d="M77.116,56.501c-4.047,1.795-8.457,2.734-12.917,2.734   c-0.658,0-1.309-0.025-1.955-0.064c-0.166-0.012-0.328-0.026-0.492-0.039c-0.521-0.04-1.04-0.091-1.555-0.157   c-0.128-0.016-0.257-0.03-0.384-0.048c-1.331-0.187-2.638-0.45-3.912-0.795C42.363,54.472,32.37,42.088,32.37,27.407   c0-1.282,0.078-2.564,0.23-3.836c-7.62,5.431-12.246,14.277-12.246,23.734c0,1.38,0.104,2.734,0.29,4.063   c3.012,0.438,5.628,1.755,7.368,3.783c1.396,1.625,2.13,3.574,2.165,5.712c2.116-0.035,3.976,0.828,5.162,2.376   c1.075,1.401,1.455,3.216,1.017,4.854c-0.158,0.591-0.694,1.003-1.307,1.003h-4.863c5.143,4.557,11.897,7.331,19.292,7.331   c11.18,0,21.26-6.535,26.093-16.237l0,0c0.004-0.005,0.005-0.011,0.007-0.017c0.289-0.581,0.567-1.169,0.816-1.772   C76.657,57.78,76.902,57.147,77.116,56.501z"/><path fill-rule="evenodd" clip-rule="evenodd" d="M90.083,51.765c-0.244,0-0.486,0.013-0.723,0.037   c-0.765-5.973-5.866-10.589-12.047-10.589c-6.318,0-11.508,4.823-12.091,10.989c-0.755-0.283-1.573-0.438-2.427-0.438   c-2.686,0-5.009,1.53-6.158,3.764c2.411,0.649,4.946,1.002,7.562,1.002c5.04,0,10.008-1.31,14.365-3.785   c0.462-0.265,1.04-0.23,1.471,0.088c0.431,0.317,0.634,0.857,0.519,1.38c-0.463,2.083-1.134,4.08-1.981,5.979h18.273   c0.106-0.482,0.164-0.984,0.164-1.5C97.01,54.865,93.908,51.765,90.083,51.765z"/></g></svg>